<svg width="32" height="32" viewBox="0 0 32 32" xmlns="http://www.w3.org/2000/svg">
  <!-- Background circle -->
  <circle cx="16" cy="16" r="16" fill="#000000"/>
  
  <!-- Main design: Stylized "P" and "R" with pilates-inspired elements -->
  <!-- Letter "P" -->
  <path d="M6 8 L6 24 L8 24 L8 17 L12 17 Q15 17 15 13.5 Q15 10 12 10 L6 10 Z M8 10 L12 10 Q13 10 13 13.5 Q13 15 12 15 L8 15 Z" fill="white"/>
  
  <!-- Letter "R" -->
  <path d="M18 8 L18 24 L20 24 L20 17 L23 17 L26 24 L28 24 L24.5 16.5 Q27 16 27 12.5 Q27 8 24 8 Z M20 10 L24 10 Q25 10 25 12.5 Q25 15 24 15 L20 15 Z" fill="white"/>
  
  <!-- Pilates reformer-inspired horizontal lines -->
  <line x1="4" y1="26" x2="28" y2="26" stroke="white" stroke-width="1" opacity="0.6"/>
  <line x1="4" y1="28" x2="28" y2="28" stroke="white" stroke-width="1" opacity="0.4"/>
  
  <!-- Small accent dots representing balance/alignment -->
  <circle cx="10" cy="6" r="1" fill="white" opacity="0.7"/>
  <circle cx="22" cy="6" r="1" fill="white" opacity="0.7"/>
</svg>